<svg width="100" height="100" viewBox="0 0 100 100" fill="none" xmlns="http://www.w3.org/2000/svg">
<rect width="100" height="100" fill="black"/>
<path d="M0 0H100V1C100 6.52285 95.5228 11 90 11H10C4.47716 11 0 6.52285 0 1V0Z" fill="#03C88D"/>
<path d="M25.8731 26.85H34.9731L51.9381 73H42.7081L38.4181 61.495H22.2981L18.0731 73H8.84307L25.8731 26.85ZM36.7931 55.19L30.4231 36.145L23.7931 55.19H36.7931ZM83.9237 38.94C83.5337 38.5067 82.7103 37.9433 81.4537 37.25C80.197 36.5133 78.6803 35.8633 76.9037 35.3C75.1703 34.6933 73.372 34.39 71.5087 34.39C66.612 34.39 64.1637 36.1233 64.1637 39.59C64.1637 40.8467 64.5537 41.8433 65.3337 42.58C66.1137 43.3167 67.2837 43.945 68.8437 44.465C70.4037 44.985 72.3537 45.5483 74.6937 46.155C77.727 46.935 80.3487 47.845 82.5587 48.885C84.812 49.925 86.5237 51.3117 87.6937 53.045C88.907 54.735 89.5137 56.9883 89.5137 59.805C89.5137 63.0983 88.712 65.7633 87.1087 67.8C85.5487 69.7933 83.4687 71.245 80.8687 72.155C78.2687 73.065 75.452 73.52 72.4187 73.52C68.952 73.52 65.507 73 62.0837 71.96C58.7037 70.8767 55.692 69.4033 53.0487 67.54L57.0137 59.805C57.4037 60.195 58.097 60.715 59.0937 61.365C60.0903 61.9717 61.3037 62.6 62.7337 63.25C64.1637 63.8567 65.7237 64.3767 67.4137 64.81C69.1037 65.2433 70.8153 65.46 72.5487 65.46C77.4887 65.46 79.9587 63.8783 79.9587 60.715C79.9587 59.3717 79.4603 58.2883 78.4637 57.465C77.467 56.6417 76.0587 55.9483 74.2387 55.385C72.462 54.8217 70.382 54.1933 67.9987 53.5C65.052 52.6767 62.6037 51.7667 60.6537 50.77C58.747 49.73 57.317 48.4517 56.3637 46.935C55.4103 45.375 54.9337 43.4033 54.9337 41.02C54.9337 37.8567 55.6703 35.2133 57.1437 33.09C58.6603 30.9233 60.697 29.2983 63.2537 28.215C65.8103 27.0883 68.6487 26.525 71.7687 26.525C74.9753 26.525 77.9653 27.045 80.7387 28.085C83.512 29.125 85.8953 30.3167 87.8887 31.66L83.9237 38.94Z" fill="#FFFDFD"/>
</svg>
